<svg xmlns="http://www.w3.org/2000/svg" width="128" height="128" viewBox="0 0 128 128" fill="none">
  <defs>
    <radialGradient id="bg" cx="0" cy="0" r="1" gradientUnits="userSpaceOnUse" gradientTransform="translate(38 28) rotate(48) scale(104)">
      <stop offset="0" stop-color="#9EA6FF"/>
      <stop offset="0.38" stop-color="#5E61FF"/>
      <stop offset="1" stop-color="#1F22D8"/>
    </radialGradient>
    <filter id="grain" x="-20%" y="-20%" width="140%" height="140%">
      <feTurbulence type="fractalNoise" baseFrequency="0.9" numOctaves="1" stitchTiles="stitch" result="noise"/>
      <feColorMatrix in="noise" type="saturate" values="0"/>
      <feComponentTransfer>
        <feFuncA type="table" tableValues="0 0.08"/>
      </feComponentTransfer>
    </filter>
    <clipPath id="planetClip">
      <circle cx="66.5" cy="63.5" r="5.5"/>
    </clipPath>
  </defs>

  <circle cx="64" cy="64" r="52" fill="url(#bg)"/>
  <circle cx="64" cy="64" r="52" fill="#000" filter="url(#grain)" opacity="0.45"/>

  <path
    d="M43.2 37.6H74.9C88.7 37.6 99.2 47.3 99.2 60.3C99.2 73 89 82.7 75.2 82.7H61.5L60.1 101.5H38.7L43.2 37.6Z"
    fill="white"
  />
  <path
    d="M56.2 51.3H73.5C78.9 51.3 82.8 54.7 82.8 60.2C82.8 65.8 78.8 69.3 73.2 69.3H55.1L56.2 51.3Z"
    fill="#1C1FD4"
  />

  <g clip-path="url(#planetClip)">
    <circle cx="66.5" cy="63.5" r="5.5" fill="#EEF0FF"/>
    <rect x="60.2" y="58.2" width="12.6" height="2.1" rx="1.05" fill="#6C72FF"/>
    <rect x="59.8" y="62.2" width="13.4" height="2.1" rx="1.05" fill="#6C72FF"/>
    <rect x="60.4" y="66.2" width="12.2" height="2.1" rx="1.05" fill="#6C72FF"/>
  </g>
</svg>
